<svg width="762" height="763" viewBox="0 0 762 763" fill="none" xmlns="http://www.w3.org/2000/svg">
<g opacity="0.2">
<path d="M488.64 712.664C418.643 735.407 343.244 735.407 273.248 712.664C203.251 689.921 142.252 645.602 98.9918 586.06C55.7317 526.518 32.432 454.808 32.432 381.21C32.432 307.612 55.7317 235.902 98.9918 176.36C142.252 116.818 203.251 72.499 273.248 49.7558C343.244 27.0127 418.643 27.0127 488.639 49.7558C558.636 72.499 619.635 116.818 662.895 176.36C706.155 235.902 729.455 307.612 729.455 381.21" stroke="#60E1CB" stroke-width="4"/>
<path d="M438.487 110.488C495.658 122.64 547.514 152.58 586.623 196.015C625.732 239.45 650.087 294.152 656.197 352.279C662.306 410.407 649.857 468.977 620.633 519.594C591.409 570.212 546.911 610.278 493.516 634.051C440.121 657.824 380.571 664.083 323.4 651.931C266.229 639.779 214.373 609.84 175.264 566.404C136.155 522.969 111.8 468.268 105.69 410.14C99.581 352.012 112.03 293.442 141.254 242.825" stroke="#60E1CB" stroke-width="4"/>
<path d="M242.977 534.438C210.618 505.302 188.314 466.67 179.261 424.079C170.208 381.488 174.871 337.124 192.581 297.346C210.292 257.567 240.14 224.417 277.849 202.646C315.558 180.874 359.192 171.6 402.496 176.151C445.8 180.703 486.552 198.847 518.91 227.982C551.269 257.118 573.573 295.75 582.626 338.341C591.679 380.932 587.016 425.296 569.306 465.074C551.595 504.853 521.747 538.003 484.038 559.774" stroke="#60E1CB" stroke-width="4"/>
</g>
</svg>
